<?xml version="1.0" encoding="UTF-8" standalone="no"?>
<svg
   xmlns:dc="http://purl.org/dc/elements/1.1/"
   xmlns:cc="http://creativecommons.org/ns#"
   xmlns:rdf="http://www.w3.org/1999/02/22-rdf-syntax-ns#"
   xmlns:svg="http://www.w3.org/2000/svg"
   xmlns="http://www.w3.org/2000/svg"
   xmlns:sodipodi="http://sodipodi.sourceforge.net/DTD/sodipodi-0.dtd"
   xmlns:inkscape="http://www.inkscape.org/namespaces/inkscape"
   width="6.9453125mm"
   height="8.1028643mm"
   viewBox="0 0 6.9453125 8.1028643"
   version="1.1"
   id="svg923"
   inkscape:version="1.0.1 (3bc2e813f5, 2020-09-07)"
   sodipodi:docname="HistoricalAlarms.svg">
  <defs
     id="defs917" />
  <sodipodi:namedview
     id="base"
     pagecolor="#ffffff"
     bordercolor="#666666"
     borderopacity="1.0"
     inkscape:pageopacity="0.0"
     inkscape:pageshadow="2"
     inkscape:zoom="11.2"
     inkscape:cx="15.788435"
     inkscape:cy="16.539991"
     inkscape:document-units="mm"
     inkscape:current-layer="layer1"
     inkscape:document-rotation="0"
     showgrid="false"
     fit-margin-top="0"
     fit-margin-left="0"
     fit-margin-right="0"
     fit-margin-bottom="0"
     inkscape:window-width="1267"
     inkscape:window-height="1198"
     inkscape:window-x="370"
     inkscape:window-y="100"
     inkscape:window-maximized="0" />
  <metadata
     id="metadata920">
    <rdf:RDF>
      <cc:Work
         rdf:about="">
        <dc:format>image/svg+xml</dc:format>
        <dc:type
           rdf:resource="http://purl.org/dc/dcmitype/StillImage" />
        <dc:title></dc:title>
      </cc:Work>
    </rdf:RDF>
  </metadata>
  <g
     inkscape:label="Layer 1"
     inkscape:groupmode="layer"
     id="layer1"
     transform="translate(-122.77139,-181.91286)">
    <g
       style="clip-rule:evenodd;fill-rule:nonzero;image-rendering:optimizeQuality;shape-rendering:geometricPrecision;text-rendering:geometricPrecision"
       id="g939"
       transform="matrix(9.0433757e-4,0,0,9.0433757e-4,121.61384,181.33408)">
      <path
         id="curve0"
         fill="#28394a"
         d="m 1280,640 h 5230 c 352,0 656,126 905,375 l 1170,1170 c 249,249 375,553 375,905 V 9600 H 1280 Z m 5760,960 v 960 h 960 z M 1920,1280 V 8960 H 8320 V 3520 c 0,-176 -144,-320 -320,-320 H 6400 V 1600 c 0,-176 -144,-320 -320,-320 z" />
    </g>
    <g
       style="clip-rule:evenodd;fill-rule:nonzero;image-rendering:optimizeQuality;shape-rendering:geometricPrecision;text-rendering:geometricPrecision"
       id="g957"
       transform="matrix(4.1994172e-4,0,0,4.3777321e-4,124.06739,184.37171)">
      <path
         id="curve1"
         fill="#28394a"
         d="m 5680,1282 3846,6712 c 117,205 117,439 0,644 -117,205 -319,322 -554,322 H 1281 c -234,0 -436,-117 -553,-322 -117,-205 -117,-439 0,-644 L 4574,1282 c 117,-205 318,-322 553,-322 235,0 436,117 553,322 z m -560,318 -3840,6720 h 7680 z" />
      <path
         id="curve0-8"
         fill="#28394a"
         d="m 5120,6720 c 353,0 640,287 640,640 0,353 -287,640 -640,640 -353,0 -640,-287 -640,-640 0,-353 287,-640 640,-640 z M 4800,3840 h 640 c 176,0 320,144 320,320 v 802 c 0,110 -12,204 -38,311 l -252,1006 c -18,72 -81,121 -155,121 h -390 c -74,0 -137,-49 -155,-121 L 4518,5273 c -26,-107 -38,-201 -38,-311 v -802 c 0,-176 144,-320 320,-320 z" />
    </g>
  </g>
</svg>
